HIERARCHY
ROOT Hips
{
	OFFSET	0.00	0.00	0.00
	CHANNELS 6 Xposition Yposition Zposition Zrotation Xrotation Yrotation
	JOINT LeftUpLeg
	{
		OFFSET	 0.126116	-0.014019	-0.065224
		CHANNELS 3 Zrotation Xrotation Yrotation
		JOINT LeftLeg
		{
			OFFSET	 0.000000	 0.000000	 0.569914
			CHANNELS 3 Zrotation Xrotation Yrotation
			JOINT LeftFoot
			{
				OFFSET	 0.000000	 0.000000	 0.544423
				CHANNELS 3 Zrotation Xrotation Yrotation
				JOINT LeftToeBase
				{
					OFFSET	 0.000000	 0.000000	 0.207117
					CHANNELS 3 Zrotation Xrotation Yrotation
					End Site
					{
						OFFSET	 0.000000	 0.000000	 0.207117
					}
				}
			}
		}
	}
	JOINT RightUpLeg
	{
		OFFSET	-0.124023	-0.008373	-0.065224
		CHANNELS 3 Zrotation Xrotation Yrotation
		JOINT RightLeg
		{
			OFFSET	 0.000000	 0.000000	 0.570047
			CHANNELS 3 Zrotation Xrotation Yrotation
			JOINT RightFoot
			{
				OFFSET	 0.000000	 0.000000	 0.544354
				CHANNELS 3 Zrotation Xrotation Yrotation
				JOINT RightToeBase
				{
					OFFSET	 0.000000	 0.000000	 0.207540
					CHANNELS 3 Zrotation Xrotation Yrotation
					End Site
					{
						OFFSET	 0.000000	 0.000000	 0.207540
					}
				}
			}
		}
	}
	JOINT Spine
	{
		OFFSET	 0.000184	-0.007763	 0.117403
		CHANNELS 3 Zrotation Xrotation Yrotation
		JOINT Spine1
		{
			OFFSET	 0.000000	 0.000000	 0.137269
			CHANNELS 3 Zrotation Xrotation Yrotation
			JOINT Spine2
			{
				OFFSET	 0.000000	 0.000000	 0.156879
				CHANNELS 3 Zrotation Xrotation Yrotation
				JOINT LeftShoulder
				{
					OFFSET	 0.080501	-0.002496	 0.160144
					CHANNELS 3 Zrotation Xrotation Yrotation
					JOINT LeftArm
					{
						OFFSET	 0.000000	 0.000000	 0.164363
						CHANNELS 3 Zrotation Xrotation Yrotation
						JOINT LeftForeArm
						{
							OFFSET	 0.000000	 0.000000	 0.364576
							CHANNELS 3 Zrotation Xrotation Yrotation
							JOINT LeftHand
							{
								OFFSET	 0.000000	 0.000000	 0.360812
								CHANNELS 3 Zrotation Xrotation Yrotation
								JOINT LeftHandIndex1
								{
									OFFSET	 0.000000	 0.000000	 0.086006
									CHANNELS 3 Zrotation Xrotation Yrotation
									JOINT LeftHandIndex2
									{
										OFFSET	 0.000000	 0.000000	 0.047236
										CHANNELS 3 Zrotation Xrotation Yrotation
										JOINT LeftHandIndex3
										{
											OFFSET	-0.004284	-0.000551	 0.038166
											CHANNELS 3 Zrotation Xrotation Yrotation
											End Site
											{
												OFFSET	-0.004284	-0.000551	 0.038166
											}
										}
									}
								}
							}
						}
					}
				}
				JOINT Neck
				{
					OFFSET	 0.000000	 0.000000	 0.176489
					CHANNELS 3 Zrotation Xrotation Yrotation
					JOINT Head
					{
						OFFSET	 0.000000	-0.001747	 0.077940
						CHANNELS 3 Zrotation Xrotation Yrotation
						End Site
						{
							OFFSET	 0.000000	-0.001747	 0.077940
						}
					}
				}
				JOINT RightShoulder
				{
					OFFSET	-0.080363	 0.000306	 0.159706
					CHANNELS 3 Zrotation Xrotation Yrotation
					JOINT RightArm
					{
						OFFSET	 0.000000	 0.000000	 0.164196
						CHANNELS 3 Zrotation Xrotation Yrotation
						JOINT RightForeArm
						{
							OFFSET	 0.000000	 0.000000	 0.365611
							CHANNELS 3 Zrotation Xrotation Yrotation
							JOINT RightHand
							{
								OFFSET	 0.000000	 0.000000	 0.360648
								CHANNELS 3 Zrotation Xrotation Yrotation
								JOINT RightHandIndex1
								{
									OFFSET	 0.000000	 0.000000	 0.069977
									CHANNELS 3 Zrotation Xrotation Yrotation
									JOINT RightHandIndex2
									{
										OFFSET	 0.000000	 0.000000	 0.052305
										CHANNELS 3 Zrotation Xrotation Yrotation
										JOINT RightHandIndex3
										{
											OFFSET	 0.009002	-0.000782	 0.042196
											CHANNELS 3 Zrotation Xrotation Yrotation
											End Site
											{
												OFFSET	 0.009002	-0.000782	 0.042196
											}
										}
									}
								}
							}
						}
					}
				}
			}
		}
	}
}
MOTION
Frames:    5
Frame Time: 0.03333334
 3.792046	-0.000382	 0.908956	 90.034600	-2.116570	 0.175381	 6.553824	-2.485666	-178.595800	-2.434348	-35.666190	 1.300025	 9.544930	 89.786930	-8.447481	-2.376162	 30.426630	-0.043257	 1.559405	-29.401960	 179.444400	 21.545280	-73.049580	 25.009250	 176.934000	 89.333820	-169.619000	 2.378799	 29.630390	 0.027084	-1.289347	 4.345452	 1.205024	-1.305022	-1.931131	 1.029664	-0.264889	-4.666232	-0.028234	-91.798090	 78.059910	 178.910000	 35.722000	 63.647510	-47.420990	-9.019431	-4.196827	-29.226880	 4.919299	 11.328680	-5.470212	-3.812334	 37.924440	-2.927599	-2.450526	 36.184240	 0.754587	-1.378229	 35.397820	-2.634230	-0.315932	 4.039014	-1.836675	 0.356667	-11.817410	-1.487623	 89.793630	 78.766550	 179.532000	-41.834010	 71.354220	 43.917500	 1.654376	-7.551454	 25.620400	-15.386950	 10.095900	 9.722681	 6.437017	 35.671460	-0.771858	 2.830251	 35.756010	-7.813440	-2.350882	 35.473990	 5.254307
 3.813436	 0.001200	 0.907502	 90.137600	-2.001388	-0.133160	 6.267555	-0.916449	-178.125400	-2.722359	-34.495880	 1.080678	 79.899720	 89.980220	-79.105710	-2.376568	 30.351090	-0.041577	 1.766464	-30.794470	 179.561700	 18.143220	-70.418290	 21.510700	-179.202300	 88.856360	-173.351000	 2.378062	 29.776800	 0.030312	-1.331928	 4.334919	 1.541238	-1.380320	-1.975249	 1.009288	-0.273131	-4.716200	-0.029229	-91.788870	 78.270470	 178.861500	 35.493590	 63.087170	-47.930890	-8.870154	-4.312385	-30.060460	 5.029994	 11.814740	-5.479014	-3.812334	 37.924440	-2.927599	-2.450526	 36.184240	 0.754587	-1.378229	 35.397820	-2.634230	-0.330783	 4.080268	-2.054442	 0.420836	-11.956780	-1.359939	 89.789780	 78.557670	 179.498100	-41.748610	 71.404110	 43.475470	 1.755179	-7.617061	 26.163050	-15.322670	 10.584940	 9.740981	 6.437017	 35.671460	-0.771858	 2.830251	 35.756010	-7.813440	-2.350882	 35.473990	 5.254307
 3.838685	 0.002899	 0.906179	 90.252170	-1.819821	-0.448378	 6.056950	 1.124920	-177.606300	-2.977524	-32.623740	 0.963859	 26.490300	 89.903090	-25.858260	-2.376264	 30.407270	-0.042832	 1.933004	-32.088340	 179.699500	 14.933440	-66.914790	 18.077290	-176.433200	 88.837860	-175.970800	 2.377711	 29.845780	 0.031835	-1.372305	 4.293177	 1.906775	-1.460596	-2.022341	 0.983748	-0.290517	-4.767412	-0.031218	-91.777550	 78.501170	 178.808600	 35.191250	 62.487320	-48.469400	-8.713165	-4.448997	-30.914850	 5.179638	 12.346970	-5.491049	-3.812334	 37.924440	-2.927599	-2.450526	 36.184240	 0.754587	-1.378229	 35.397820	-2.634230	-0.352008	 4.146062	-2.291392	 0.479767	-12.123330	-1.259675	 89.784970	 78.329750	 179.471300	-41.679350	 71.469800	 43.057670	 1.859648	-7.671018	 26.660550	-15.270240	 11.109430	 9.760912	 6.437017	 35.671460	-0.771858	 2.830251	 35.756010	-7.813440	-2.350882	 35.473990	 5.254307
 3.861103	 0.004189	 0.905143	 90.341440	-1.644834	-0.648728	 5.977613	 3.111058	-177.275400	-3.172669	-30.529190	 0.936750	 14.784330	 89.733860	-14.187100	-2.374779	 30.679880	-0.048897	 2.038241	-33.177560	 179.764500	 12.728690	-63.499350	 15.596190	-172.913400	 89.027440	-179.344300	 2.378146	 29.760260	 0.029946	-1.396131	 4.234817	 2.146752	-1.514292	-2.054842	 0.963161	-0.309161	-4.801430	-0.033312	-91.769190	 78.656970	 178.775600	 34.964970	 61.979330	-48.944680	-8.657767	-4.501461	-31.569320	 5.196062	 12.775710	-5.501183	-3.812334	 37.924440	-2.927599	-2.450526	 36.184240	 0.754587	-1.378229	 35.397820	-2.634230	-0.366376	 4.212482	-2.473938	 0.512340	-12.256830	-1.212378	 89.781280	 78.166080	 179.456800	-41.636180	 71.538220	 42.767830	 1.939044	-7.699954	 26.967200	-15.249520	 11.531960	 9.777009	 6.437017	 35.671460	-0.771858	 2.830251	 35.756010	-7.813440	-2.350882	 35.473990	 5.254307
 3.885817	 0.005388	 0.904198	 90.422580	-1.430925	-0.789434	 6.042832	 5.454903	-177.042900	-3.394169	-27.817140	 0.974960	 9.905415	 89.421550	-9.223432	-2.371675	 31.229710	-0.061222	 2.159723	-34.080110	 179.758500	 10.888600	-59.565900	 13.424140	-166.489100	 89.247750	 174.423900	 2.381547	 29.067260	 0.014749	-1.401105	 4.145038	 2.317709	-1.544991	-2.091103	 0.948753	-0.321714	-4.828220	-0.034743	-91.763180	 78.762920	 178.758500	 34.767700	 61.465520	-49.440720	-8.650747	-4.502892	-32.159810	 5.129799	 13.181180	-5.508684	-3.812334	 37.924440	-2.927599	-2.450526	 36.184240	 0.754587	-1.378229	 35.397820	-2.634230	-0.363826	 4.284091	-2.641970	 0.534558	-12.380520	-1.188171	 89.778970	 78.069800	 179.447800	-41.591980	 71.627780	 42.520560	 2.009463	-7.712459	 27.142450	-15.260480	 11.943100	 9.792528	 6.437017	 35.671460	-0.771858	 2.830251	 35.756010	-7.813440	-2.350882	 35.473990	 5.254307
